<svg width="612" height="597" viewBox="0 0 612 597" fill="none" xmlns="http://www.w3.org/2000/svg">
<path d="M267.208 0.0444165C197.921 1.22065 90.719 26.5404 59.8624 91.6074C49.0854 114.333 49.815 147.742 51.2741 214.56C51.703 234.199 52.4141 262.825 57.4086 298.342C67.7836 372.123 74.8464 422.35 101.577 451.596C168.556 524.879 410.498 522.761 513.815 390.828C570.175 318.858 578.845 216.478 527.311 131.866C470.573 38.7101 359.968 -1.53055 267.208 0.0444165Z" fill="#F1F4F9"/>
<path d="M436.439 363.015C438.654 372.44 441.531 379.938 444.123 389.044C403.966 382.729 364.101 384.031 323.377 377.704C353.985 334.122 380.751 316.272 370.495 255.31C365.682 226.702 347.844 171.733 361.622 145.632C377.32 115.896 398.643 125.899 395.421 97.5887C390.386 53.3407 415.612 9.51176 472.654 33.2311C528.953 56.6413 511.703 214.456 474.551 254.386C449.721 294.722 424.868 313.804 436.439 363.015Z" fill="#A46DDA"/>
<mask id="mask0_2241_467" style="mask-type:luminance" maskUnits="userSpaceOnUse" x="356" y="26" width="153" height="349">
<path d="M369.822 250.501C367.976 239.763 346.746 165.972 361.423 144.493C378.143 120.023 398.326 124.497 395.313 97.1051C390.606 54.2921 415.505 9.18827 472.639 33.1274C529.028 56.7541 511.614 214.674 474.596 254.065C449.347 298.568 425.353 307.701 436.356 366.008C444.062 406.849 376.763 290.874 369.822 250.501Z" fill="white"/>
</mask>
<g mask="url(#mask0_2241_467)">
<path d="M382.036 378.364L381.429 378.176C385.857 363.77 391.461 349.552 396.882 335.802L398.933 330.592C403.271 319.549 406.956 309.592 410.206 300.808C412.036 295.863 413.764 291.192 415.478 286.676C420.667 272.993 424.339 263.393 426.188 258.555C426.832 256.872 427.255 255.765 427.445 255.265C441.75 217.517 447.359 160.865 450.373 130.43C450.7 127.127 450.992 124.175 451.258 121.64C455.825 78.0805 465.774 33.3077 480.829 -11.4354L481.431 -11.231C466.391 33.4666 456.452 78.1935 451.889 121.707C451.624 124.24 451.331 127.192 451.005 130.493C447.988 160.958 442.374 217.664 428.038 255.491C427.848 255.992 427.425 257.1 426.781 258.784C424.931 263.62 421.261 273.22 416.071 286.902C414.359 291.415 412.631 296.085 410.801 301.029C407.55 309.817 403.864 319.777 399.524 330.825L397.472 336.036C392.057 349.776 386.457 363.982 382.036 378.364Z" fill="#F1F4F9"/>
<path d="M409.101 308.624L408.498 308.425C416.747 283.098 416.261 249.981 407.094 212.655C399.448 181.524 385.884 148.526 369.88 122.125L370.422 121.793C386.459 148.248 400.05 181.31 407.711 212.503C416.906 249.945 417.387 283.183 409.101 308.624Z" fill="#F1F4F9"/>
<path d="M449.933 135.496C446.426 112.654 440.014 90.1008 433.813 68.2899C429.562 53.3371 425.166 37.8752 421.735 22.4295L422.355 22.2908C425.782 37.7184 430.175 53.1715 434.424 68.1147C440.63 89.9446 447.047 112.518 450.56 135.4L449.933 135.496Z" fill="#F1F4F9"/>
<path d="M440.339 209.756L439.78 209.455C455 180.924 488.306 149.64 511.053 142.507L511.242 143.115C488.627 150.207 455.495 181.348 440.339 209.756Z" fill="#F1F4F9"/>
</g>
<path d="M469.997 232.473C458.793 286.93 427.494 275.087 386.877 261.721C393.679 313.058 398.419 363.296 403.053 414.297C430.369 422.837 450.093 428.444 465.562 397.23C483.056 361.927 491.986 340.972 534.403 332.426C576.82 323.879 609.061 292.735 595.046 251.666C580.298 208.447 617.685 152.409 581.776 120.839C519.208 65.8296 481.665 175.767 469.997 232.473Z" fill="#CB9EF5"/>
<mask id="mask1_2241_467" style="mask-type:luminance" maskUnits="userSpaceOnUse" x="354" y="106" width="245" height="316">
<path d="M382.94 404.478C412.356 419.595 445.509 436.848 465.734 396.751C482.571 363.371 492.185 340.29 534.451 332.314C576.717 324.338 609.064 292.396 595.07 251.677C580.344 208.827 617.554 151.852 581.772 120.87C519.425 66.8835 481.311 173.853 470.11 233.304C458.91 292.755 421.498 266.207 383.536 263.95C331.711 260.869 359.173 392.263 382.94 404.478Z" fill="white"/>
</mask>
<g mask="url(#mask1_2241_467)">
<path d="M406.913 348.823L406.638 348.249C448.649 327.953 483.09 309.872 512.091 277.718C539.814 246.981 553.428 213.804 557.613 166.781C559.797 142.252 564.119 124.94 570.466 101.328L571.079 101.495C564.741 125.074 560.424 142.361 558.246 166.838C554.047 214.01 540.385 247.298 512.562 278.146C483.483 310.386 448.988 328.497 406.913 348.823Z" fill="#F1F4F9"/>
<path d="M460.038 416.685C450.4 404.763 440.009 395.064 428.271 387.033C422.295 382.944 416.149 380.159 408.759 377.235L408.992 376.643C416.421 379.581 422.604 382.384 428.629 386.506C440.418 394.572 450.853 404.312 460.531 416.283L460.038 416.685Z" fill="#F1F4F9"/>
<path d="M493.749 296.712L493.472 296.138C525.389 280.644 564.978 276.995 604.947 285.862L604.81 286.485C564.979 277.649 525.537 281.281 493.749 296.712Z" fill="#F1F4F9"/>
<path d="M548.571 217.152L547.941 217.074C548.434 213.003 543.076 178.419 537.897 147.411C532.064 112.491 526.589 82.633 525.692 80.8525L526.258 80.5648C527.304 82.6405 533.315 116.129 538.523 147.306C543.709 178.358 549.072 213.012 548.571 217.152Z" fill="#F1F4F9"/>
</g>
<path d="M89.4641 190.039L0.432024 470.65C-1.52002 476.803 3.41042 482.963 9.84194 482.407L205.725 465.48L116.019 185.218L89.4641 190.039Z" fill="#354D6C"/>
<path d="M540.648 193.159L98.7828 184.307C92.4112 184.179 88.1402 188.602 89.2609 194.186L153.436 513.892C154.557 519.476 160.559 523.678 166.824 523.278L601.349 495.559C606.321 495.242 609.535 490.969 608.541 486.014L551.594 202.314C550.599 197.359 545.704 193.26 540.648 193.159Z" fill="#354D6C"/>
<path d="M543.927 193.159L102.061 184.307C95.6896 184.179 91.4186 188.602 92.5395 194.186L156.714 513.892C157.835 519.476 163.837 523.677 170.103 523.278L604.628 495.559C609.6 495.242 612.814 490.968 611.819 486.014L554.872 202.313C553.877 197.359 548.983 193.26 543.927 193.159Z" fill="#354D6C"/>
<g opacity="0.15">
<path d="M423.678 365.006C337.421 323.047 254.402 356.158 196.532 302.371C160.967 269.315 155.316 222.292 157.189 185.411L102.061 184.307C95.6898 184.179 91.4188 188.602 92.5397 194.186L156.715 513.892C157.835 519.476 163.837 523.677 170.103 523.278L546.561 499.263C506.982 419.362 461.174 383.245 423.678 365.006Z" fill="#B9C7E1"/>
</g>
<path d="M589.715 484.8L178.6 509.692C171.705 510.109 165.097 505.456 163.861 499.299L106.76 214.833C105.523 208.675 110.214 203.77 117.214 203.878L534.608 210.268C540.231 210.354 545.671 214.879 546.774 220.374L597.733 474.243C598.836 479.739 595.253 484.465 589.715 484.8Z" fill="#D5DDEE"/>
<path d="M591.58 484.687L180.915 509.552C174.028 509.968 167.426 505.319 166.191 499.164L109.123 214.863C107.888 208.708 112.572 203.806 119.564 203.914L536.502 210.297C542.119 210.383 547.553 214.905 548.656 220.398L599.589 474.136C600.692 479.629 597.113 484.352 591.58 484.687Z" fill="#EFF4F7"/>
<path d="M530.92 243.795L142.249 241.404L138.74 223.921L527.747 227.988L530.92 243.795Z" fill="#CB9EF5"/>
<g opacity="0.3">
<path d="M423.678 365.006C337.421 323.047 254.402 356.158 196.532 302.371C166.908 274.838 158.026 237.528 156.984 204.487L119.087 203.906C112.358 203.803 107.85 208.52 109.039 214.443L166.275 499.584C167.464 505.507 173.817 509.981 180.445 509.58L540.669 487.77C502.504 415.859 459.331 382.349 423.678 365.006Z" fill="#D5DDEE"/>
</g>
<path d="M190.758 484.811C189.933 484.811 189.216 484.23 189.052 483.413L144.154 259.742C144.052 259.23 144.184 258.699 144.516 258.295C144.847 257.892 145.341 257.659 145.862 257.659C145.863 257.659 145.864 257.659 145.865 257.659L222.74 257.791C223.568 257.792 224.281 258.377 224.444 259.189L268.489 478.615C268.589 479.111 268.468 479.625 268.158 480.025C267.848 480.425 267.381 480.67 266.876 480.697L190.853 484.809C190.822 484.811 190.79 484.811 190.758 484.811ZM147.989 261.145L192.17 481.25L264.679 477.328L221.309 261.271L147.989 261.145Z" fill="#D5DDEE"/>
<path d="M275.792 480.213C274.967 480.213 274.249 479.631 274.085 478.814L230.14 259.891C230.038 259.378 230.17 258.847 230.502 258.443C230.832 258.04 231.326 257.807 231.848 257.807C231.849 257.807 231.85 257.807 231.851 257.807L305.527 257.933C306.356 257.935 307.068 258.519 307.232 259.332L350.36 474.188C350.459 474.684 350.338 475.198 350.029 475.597C349.719 475.997 349.251 476.242 348.746 476.269L275.887 480.21C275.855 480.212 275.823 480.213 275.792 480.213ZM233.974 261.293L277.203 476.651L346.549 472.9L304.097 261.413L233.974 261.293Z" fill="#D5DDEE"/>
<path d="M357.291 475.805C356.466 475.805 355.748 475.223 355.584 474.406L312.553 260.032C312.45 259.519 312.583 258.989 312.914 258.585C313.245 258.182 313.739 257.948 314.26 257.948C314.261 257.948 314.262 257.948 314.264 257.948L384.937 258.069C385.765 258.071 386.478 258.655 386.641 259.468L428.889 469.941C428.989 470.436 428.868 470.951 428.558 471.35C428.249 471.75 427.781 471.995 427.276 472.022L357.386 475.802C357.354 475.804 357.322 475.805 357.291 475.805ZM316.387 261.434L358.703 472.243L425.078 468.653L383.506 261.549L316.387 261.434Z" fill="#D5DDEE"/>
<path d="M435.472 471.576C434.647 471.576 433.929 470.994 433.766 470.177L391.61 260.168C391.507 259.655 391.64 259.124 391.971 258.72C392.302 258.317 392.796 258.084 393.318 258.084C393.319 258.084 393.32 258.084 393.321 258.084L461.171 258.2C461.999 258.201 462.712 258.786 462.876 259.598L504.279 465.863C504.378 466.358 504.257 466.873 503.948 467.272C503.638 467.672 503.17 467.917 502.665 467.944L435.567 471.573C435.535 471.575 435.503 471.576 435.472 471.576ZM395.444 261.57L436.884 468.015L500.467 464.576L459.74 261.68L395.444 261.57Z" fill="#D5DDEE"/>
<path d="M510.534 467.516C509.709 467.516 508.991 466.935 508.827 466.118L467.513 260.298C467.41 259.785 467.543 259.254 467.874 258.851C468.205 258.448 468.699 258.214 469.22 258.214C469.221 258.214 469.222 258.214 469.223 258.214L534.417 258.326C535.245 258.327 535.958 258.912 536.121 259.724L576.713 461.945C576.812 462.441 576.692 462.955 576.382 463.355C576.072 463.754 575.604 464 575.1 464.027L510.629 467.514C510.597 467.515 510.565 467.516 510.534 467.516ZM471.347 261.7L511.946 463.955L572.902 460.658L532.986 261.806L471.347 261.7Z" fill="#D5DDEE"/>
<path opacity="0.15" d="M221.853 289.333L159.052 289.696L154.415 266.598L217.288 266.594L221.853 289.333Z" fill="#A46DDA"/>
<path opacity="0.15" d="M304.799 288.854L244.611 289.201L240.073 266.593L300.33 266.589L304.799 288.854Z" fill="#A46DDA"/>
<path opacity="0.15" d="M384.355 288.394L326.62 288.727L322.176 266.588L379.977 266.585L384.355 288.394Z" fill="#A46DDA"/>
<path opacity="0.15" d="M460.725 287.952L405.296 288.273L400.942 266.583L456.434 266.58L460.725 287.952Z" fill="#A46DDA"/>
<path d="M467.97 324.048L412.649 324.904L407.134 297.43L462.536 296.976L467.97 324.048Z" fill="#CB9EF5"/>
<path d="M228.384 324.048L167.552 324.904L161.488 297.43L222.409 296.976L228.384 324.048Z" fill="#DFA660"/>
<path d="M312.519 324.048L251.686 324.904L245.622 297.43L306.543 296.976L312.519 324.048Z" fill="#CB9EF5"/>
<path d="M391.329 324.048L334.415 324.904L328.741 297.43L385.739 296.976L391.329 324.048Z" fill="#DFA660"/>
<path d="M236.3 360.902L175.468 361.757L169.404 334.284L230.325 333.83L236.3 360.902Z" fill="#CB9EF5"/>
<path d="M244.711 401.562L183.878 402.418L177.814 374.945L238.736 374.49L244.711 401.562Z" fill="#E55656"/>
<path d="M542.156 322.868L486.834 323.702L481.32 296.932L536.722 296.49L542.156 322.868Z" fill="#DFA660"/>
<path d="M548.711 355.963L493.39 356.797L487.875 330.027L543.278 329.584L548.711 355.963Z" fill="#CB9EF5"/>
<path opacity="0.15" d="M534.095 287.528L480.837 287.836L476.57 266.579L529.889 266.576L534.095 287.528Z" fill="#A46DDA"/>
<path d="M179.552 89.4351C184.632 87.9501 191.422 97.2863 197.067 105.048C205.511 116.659 215.377 130.226 212.719 146.516C210.104 162.543 196.375 175.025 192.463 173.24C189.116 171.713 195.551 160.933 190.622 146.516C186.644 134.882 180.054 134.878 175.635 123.473C170.15 109.317 173.302 91.2623 179.552 89.4351Z" fill="#DFA660"/>
<path d="M182.066 163.258C208.232 169.616 225.467 179.822 235.533 187.041C240.988 190.954 243.508 193.394 244.868 196.951C252.619 217.221 212.797 247.868 208.553 251.078C206.699 246.752 204.846 242.426 202.992 238.1C207.107 215.495 213.958 208.403 219.691 206.294C221.294 205.704 223.986 205.072 223.934 204.312C223.81 202.517 208.685 205.076 194.23 199.782C179.816 194.504 165.335 181.148 167.921 172.318C168.393 170.707 170.37 166.047 182.066 163.258Z" fill="#49296C"/>
<path d="M207.438 311.415C207.438 311.415 205.003 312.283 204.994 314.211C204.985 316.139 207.461 324.631 210.151 327.649C212.841 330.666 213.081 326.164 212.915 323.264C212.749 320.364 212.043 313.873 211.378 312.618C210.713 311.363 207.438 311.415 207.438 311.415Z" fill="#354D6C"/>
<path d="M206.031 303.223C206.174 306.194 206.426 308.678 206.653 310.522C207.156 314.603 207.618 316.218 208.251 317.689C208.803 318.97 210.183 321.766 210.842 321.572C211.511 321.375 210.822 318.278 210.301 309.664C210.225 308.414 209.995 304.434 209.995 304.434L206.031 303.223Z" fill="white"/>
<path d="M166.978 164.957C182.054 174.054 191.841 184.398 197.531 191.383C204.248 199.629 214.465 212.171 218.164 230.874C220.136 240.842 219.166 249.785 217.145 267.262C215.137 284.621 212.26 298.753 210.009 308.405C208.85 308.871 207.691 309.337 206.532 309.802C203.426 304.092 199.364 295.053 197.908 283.495C195.525 264.584 202.594 258.575 199.201 245.164C196.262 233.547 187.746 226.423 170.715 212.176C156.721 200.471 143.819 193.526 139.029 178.925C138.216 176.446 137.524 173.405 138.85 170.62C141.708 164.618 152.641 162.524 166.978 164.957Z" fill="#49296C"/>
<path d="M154.943 90.5169C158.857 89.6744 165.292 89.8418 171.427 85.0066C173.274 83.5511 179.817 78.3941 179.023 71.0157C178.324 64.5199 172.172 61.029 171.417 60.6132C167.063 58.2145 162.721 58.7476 157.906 59.4065C151.663 60.261 149.589 61.9678 145.251 63.1386C134.518 66.0339 130.888 59.9903 120.082 60.5005C106.27 61.152 105.076 71.361 93.4555 71.6157C80.4103 71.9015 77.9101 59.1236 65.0303 56.9587C47.1526 53.9536 20.1033 73.2153 20.648 95.42C20.9626 108.245 30.5042 122.942 42.6915 127.355C49.7952 129.927 57.4609 129.11 59.6488 133.733C61.2061 137.024 57.7053 139.559 58.0362 145.291C58.4617 152.682 64.8197 157.869 65.8464 158.706C75.377 166.481 96.7447 162.554 111.336 151.552C137.649 131.713 133.667 95.0987 154.943 90.5169Z" fill="#354D6C"/>
<path d="M124.719 87.8807C133.582 86.788 143.804 85.956 155.163 85.8016C179.165 85.4754 182.601 88.5213 183.48 90.7762C185.119 94.9797 182.311 97.0863 183.906 104.416C184.859 108.798 183.958 110.795 185.801 115.504C187.597 120.093 186.188 122.56 184.6 133.32C182.569 147.079 181.632 154.072 185.479 159.619C188.152 163.473 191.143 163.799 190.858 165.63C190.251 169.53 176.776 167.379 159.717 174.867C154.778 177.034 150.232 179.705 146.421 181.945C137.495 187.19 135.843 189.195 131.71 191.571C118.638 199.086 99.0016 199.81 88.7097 190.722C84.8729 187.333 82.0765 182.352 83.3348 180.529C85.0482 178.047 92.7111 183.685 99.7427 180.246C104.401 177.967 103.516 174.281 108.902 169.938C115.383 164.71 119.889 167.449 124.3 164.048C131.182 158.743 128.052 146.039 126.12 124.741C125.32 115.924 124.518 103.334 124.719 87.8807Z" fill="#DFA660"/>
<path d="M150.695 82.9325C147.421 84.965 142.129 87.6216 141.546 88.3427C140.964 89.0628 157.578 91.9102 167.916 86.6891C167.916 86.6891 169.518 85.798 163.286 84.5507C161.958 84.2848 162.218 81.6993 162.396 79.0263L161.149 76.7095C161.149 76.7095 153.968 80.8989 150.695 82.9325Z" fill="#F1F4F9"/>
<path d="M158.953 75.1357C158.953 75.1357 157.669 80.5879 162.466 83.2824C166.762 85.6957 174.03 75.8038 172.672 72.1278C172.22 70.9015 170.602 69.3255 168.912 68.7959C167.722 68.4233 163.223 68.5669 161.296 72.3581C160.792 71.2496 159.888 70.6685 159.281 70.8509C158.51 71.0811 158.397 72.4852 158.371 72.8029C158.282 73.9054 158.726 74.7605 158.953 75.1357Z" fill="#F1F4F9"/>
<path d="M209.237 171.344L154.949 173.988C154.202 174.025 153.52 174.425 153.125 175.061L151.623 177.474C150.875 178.675 151.774 180.224 153.187 180.17L210.691 177.978L209.237 171.344Z" fill="#CB9EF5"/>
<path d="M265.701 141.088L209.616 142.175C207.956 142.207 206.437 143.112 205.617 144.556L186.195 178.756L245.428 176.394C247.054 176.329 248.537 175.448 249.373 174.05L267.367 143.964C268.133 142.683 267.193 141.059 265.701 141.088Z" fill="#CB9EF5"/>
<path d="M161.663 169.529C162.37 167.661 163.077 165.794 163.783 163.926C155.974 161.783 145.173 158.617 134.095 154.655C131.357 153.676 130.356 152.411 129.623 151.439C123.944 143.899 138.398 130.599 138.139 113.341C137.96 101.379 130.713 87.6942 124.328 87.539C111.349 87.2233 82.731 142.343 106.834 165.868C118.797 177.544 141.147 178.899 161.663 169.529Z" fill="#DFA660"/>
<path d="M163.783 163.926C168.686 161.319 174.555 163.991 174.933 164.17C176.01 164.679 177.578 165.586 179.162 167.205C179.341 167.45 181.468 170.399 180.693 171.344C180.072 172.101 177.667 171.473 174.776 169.674C173.565 169.504 171.761 169.348 169.6 169.547C165.632 169.914 163.814 171.168 162.374 170.085C161.319 169.293 160.96 167.616 161.339 166.37C161.747 165.031 162.953 164.367 163.783 163.926Z" fill="#F1F4F9"/>
<path d="M483.189 581.073C483.444 579.663 487.987 578.387 490.236 580.276C491.353 581.213 492.122 583.114 491.476 583.972C491.241 584.285 492.204 584.834 491.281 584.845C488.221 584.88 482.935 582.474 483.189 581.073Z" fill="#354D6C"/>
<path d="M488.156 581.081L492.868 581.316C491.236 578.341 493.199 570.25 493.199 570.25L488.11 570.399C488.11 570.399 488.236 572.749 488.546 576.238C488.652 577.433 488.456 579.232 488.156 581.081Z" fill="#DFA660"/>
<path d="M487.536 581.009C487.536 581.009 493.16 579.71 493.769 580.829C494.377 581.947 494.849 584.941 491.281 584.845C487.712 584.748 487.219 581.958 487.536 581.009Z" fill="#354D6C"/>
<path d="M423.539 591.3C423.989 589.94 428.665 589.313 430.628 591.498C431.603 592.583 432.099 594.573 431.339 595.332C431.063 595.609 431.939 596.288 431.024 596.169C427.99 595.775 423.092 592.651 423.539 591.3Z" fill="#354D6C"/>
<path d="M429.064 592.61L433.694 593.52C432.504 590.341 435.605 582.616 435.605 582.616L430.548 582.032C430.548 582.032 430.335 584.375 430.143 587.873C430.077 589.07 429.626 590.823 429.064 592.61Z" fill="#DFA660"/>
<path d="M427.852 591.846C427.852 591.846 433.602 591.349 434.049 592.542C434.495 593.734 434.544 596.765 431.024 596.169C427.505 595.573 427.405 592.741 427.852 591.846Z" fill="#354D6C"/>
<path d="M470.387 429.269C471.648 450.88 473.414 473.352 475.792 496.608C478.547 523.551 481.895 549.294 485.648 573.761C490.275 575.351 494.55 573.761 494.55 573.761C494.55 573.761 499.96 564.88 504.089 541.276C506.737 526.13 506.92 526.321 506.95 523.68C507.1 510.35 502.435 506.492 501.545 494.578C500.722 483.556 504.223 480.254 506.314 467.846C507.922 458.304 508.525 444.398 503.453 426.224C492.431 427.239 481.409 428.254 470.387 429.269Z" fill="#49296C"/>
<path opacity="0.3" d="M470.387 429.27C471.648 450.88 473.414 473.352 475.792 496.608C478.547 523.551 481.895 549.294 485.648 573.761C490.275 575.351 494.55 573.761 494.55 573.761C494.492 571.496 494.334 568.083 493.862 563.961C492.611 553.027 490.616 549.916 490.411 543.207C490.149 534.626 493.249 534.362 493.862 525.912C494.813 512.814 487.637 509.708 486.96 498.239C486.244 486.121 493.814 482.133 499.614 467.107C503.038 458.237 506.076 444.92 503.453 426.224C492.431 427.239 481.409 428.254 470.387 429.27Z" fill="#49296C"/>
<path d="M447.177 428.593C440.842 449.982 434.703 476.551 431.28 507.437C427.959 537.412 428.019 564.032 429.373 585.943C431.387 586.507 433.4 587.07 435.414 587.635C447.122 575.355 451.303 564.069 452.9 555.826C455.264 543.633 451.703 539.498 454.808 525.71C455.522 522.538 456.527 519.131 468.161 496.27C479.265 474.451 481.542 471.282 483.423 463.447C486.107 452.262 485.399 442.343 484.376 435.699C471.977 433.33 459.577 430.961 447.177 428.593Z" fill="#49296C"/>
<path d="M397.248 382.362L377.379 335.711C376.386 333.38 377.719 330.714 380.176 330.115L416.572 321.256C418.539 320.777 420.56 321.812 421.325 323.69L439.601 368.528C440.511 370.761 439.311 373.295 437.01 374L402.208 384.674C400.208 385.287 398.069 384.29 397.248 382.362Z" fill="#283A52"/>
<path d="M398.147 380.118L379.588 336.542C378.66 334.365 379.906 331.875 382.2 331.316L416.197 323.04C418.035 322.593 419.922 323.56 420.637 325.314L437.708 367.196C438.557 369.281 437.437 371.648 435.288 372.308L402.78 382.277C400.912 382.85 398.914 381.919 398.147 380.118Z" fill="#A46DDA"/>
<path d="M386.689 367.308L386.093 361.811L382.933 355.773C382.503 354.951 382.278 354.036 382.278 353.108V347.112L386.093 355.955C386.093 355.955 388.597 353.684 389.551 353.207C390.505 352.729 390.386 354.641 389.67 355.358C388.955 356.075 390.028 361.931 389.313 362.528L389.551 366.113L386.689 367.308Z" fill="#DFA660"/>
<path d="M416.973 332.294C419.94 325.021 426.309 320.839 429.611 318.67C437.425 313.538 442.428 314.475 460.372 311.739C484.286 308.092 487.149 304.636 495.186 307.437C505.744 311.116 511.259 320.721 513.786 325.123C526.526 347.315 511.631 358.595 515.455 402.801C517.017 420.855 521.021 436.544 511.401 445.823C509.375 447.776 507.11 448.798 502.578 450.842C484.607 458.947 468.494 457.55 458.702 456.578C447.928 455.509 442.483 454.896 439.626 451.081C435.063 444.986 439.76 437.24 440.58 423.834C441.168 414.209 438.985 406.582 434.618 391.329C424.468 355.867 411.288 346.226 416.973 332.294Z" fill="#F7716D"/>
<path d="M457.002 298.657C455.913 294.77 457.817 291.169 458.236 290.393C459.993 287.145 460.443 286.702 461.281 286.139L462.446 285.419C462.446 285.419 462.513 285.392 462.584 285.366C463.332 285.099 465.88 285.022 466.396 285.133C468.045 285.485 469.801 292.219 469.3 301.738C469.368 302.101 469.434 302.467 469.498 302.836C469.757 304.34 469.964 305.813 470.123 307.254C470.276 308.632 472.226 308.6 473.606 308.512C479.21 308.154 481.952 308.632 482.19 309.468C482.637 311.036 475.99 316.16 467.783 317.313C456.769 317.395 447.808 316.22 448.771 314.481C449.199 313.709 457.733 311.474 460.134 309.259C462.331 307.23 462.152 305.136 462.333 303.637C461.667 303.29 457.804 301.522 457.002 298.657Z" fill="#DFA660"/>
<path d="M459.028 282.715C459.038 285.664 460.424 288.814 461.131 289.32C461.222 289.385 461.735 289.792 462.196 290.487C462.259 290.581 462.315 290.692 462.364 290.835C463.009 292.694 460.061 294.881 460.63 295.713C461.043 296.317 463.046 295.509 463.284 296.031C463.509 296.521 461.844 297.537 462.099 298.125C462.291 298.568 463.316 298.162 463.962 298.842C464.284 299.181 464.19 299.449 464.531 300.483C464.724 301.069 464.994 301.709 465.203 302.065C466.22 303.797 469.1 304.429 469.654 303.736C469.809 303.543 469.676 303.381 469.834 302.733C469.834 302.733 469.98 302.132 470.397 301.438C470.992 300.446 472.43 299.736 473.882 298.689C476.569 296.749 477.299 295.096 477.519 294.537C477.597 294.338 477.645 294.188 477.68 294.08C478.379 291.906 478.382 288.713 477.407 286.749C475.774 283.46 472.089 285.021 469.073 281.762C465.593 278.002 467.666 272.862 465.777 272.294C463.696 271.668 459.01 277.262 459.028 282.715Z" fill="#283A52"/>
<path d="M461.687 295.02C462.408 294.027 463.675 294.96 463.683 296.245C463.69 297.53 462.448 298.866 461.243 298.612C460.038 298.358 460.717 296.357 461.687 295.02Z" fill="#DFA660"/>
<path d="M462.272 292.87L460.599 295.052C460.599 295.052 458.795 297.724 457.742 296.26C456.882 295.064 456.659 295.09 456.607 295.141C456.597 295.15 456.594 295.165 456.591 295.164C456.576 295.16 456.718 294.568 456.845 294.048C456.399 294.689 455.785 295.729 455.414 297.127C455.053 298.486 454.666 299.941 455.43 301.338C455.475 301.418 456.317 302.906 457.89 303.266C457.89 303.266 458.509 303.407 461.122 302.947C461.122 302.947 458.265 300.869 458.222 300.375C458.103 299.033 459.961 298.308 461.34 295.556C461.871 294.495 462.133 293.532 462.272 292.87Z" fill="#283A52"/>
<path d="M385.616 366.233C387.365 365.476 389.114 364.719 390.862 363.962C393.818 366.992 397.587 369.938 400.758 368.981C405.485 367.555 404.303 358.84 410.058 343.527C416.579 326.176 423.977 321.717 427.704 320.104C429.785 319.203 431.222 318.605 432.95 319.028C440.898 320.976 443.526 341.736 441.295 357.27C440.039 366.022 437.575 383.183 423.531 391.329C421.535 392.486 410.554 398.856 399.685 393.838C390.4 389.552 384.663 378.556 385.616 366.233Z" fill="#F7716D"/>
</svg>
