<svg width="613" height="597" viewBox="0 0 613 597" fill="none" xmlns="http://www.w3.org/2000/svg">
<path d="M267.308 0.0444604C197.988 1.22185 90.7375 26.5667 59.8667 91.6981C49.0848 114.446 49.8147 147.888 51.2745 214.772C51.7035 234.431 52.415 263.085 57.4118 298.637C67.7916 372.491 74.8576 422.768 101.6 452.043C168.61 525.398 410.664 523.279 514.028 391.215C570.414 319.174 579.088 216.692 527.53 131.997C470.766 38.7484 360.111 -1.53206 267.308 0.0444604Z" fill="#F1F4F9"/>
<path d="M436.822 363.061C439.045 372.487 441.931 379.986 444.532 389.093C404.239 382.778 364.239 384.08 323.377 377.752C354.088 334.164 380.945 316.312 370.654 255.342C365.825 226.729 347.926 171.753 361.752 145.648C377.503 115.908 398.898 125.912 395.665 97.5985C390.613 53.3444 415.924 9.50949 473.16 33.2321C529.649 56.6455 512.341 214.482 475.063 254.417C450.149 294.758 425.212 313.843 436.822 363.061Z" fill="#A46DDA"/>
<mask id="mask0_2013_3987" style="mask-type:luminance" maskUnits="userSpaceOnUse" x="356" y="26" width="154" height="349">
<path d="M369.979 250.532C368.127 239.792 346.826 165.991 361.552 144.509C378.329 120.036 398.579 124.511 395.557 97.1147C390.833 54.2959 415.817 9.18591 473.144 33.1283C529.724 56.7583 512.252 214.7 475.109 254.096C449.774 298.605 425.699 307.739 436.738 366.054C444.471 406.901 376.944 290.91 369.979 250.532Z" fill="white"/>
</mask>
<g mask="url(#mask0_2013_3987)">
<path d="M382.235 378.413L381.626 378.224C386.069 363.816 391.692 349.596 397.131 335.845L399.189 330.633C403.542 319.59 407.239 309.631 410.5 300.845C412.336 295.9 414.071 291.228 415.79 286.711C420.997 273.027 424.681 263.425 426.537 258.587C427.182 256.903 427.607 255.797 427.797 255.296C442.151 217.544 447.779 160.884 450.803 130.444C451.131 127.14 451.425 124.188 451.691 121.653C456.274 78.0875 466.257 33.3086 481.363 -11.4406L481.967 -11.2361C466.876 33.4676 456.903 78.2006 452.325 121.72C452.058 124.253 451.765 127.205 451.437 130.507C448.41 160.976 442.777 217.69 428.393 255.522C428.202 256.023 427.778 257.131 427.132 258.815C425.276 263.652 421.593 273.254 416.385 286.937C414.667 291.452 412.933 296.122 411.098 301.067C407.835 309.856 404.136 319.817 399.782 330.867L397.723 336.079C392.289 349.82 386.67 364.028 382.235 378.413Z" fill="#F1F4F9"/>
<path d="M409.392 308.663L408.786 308.464C417.063 283.134 416.575 250.012 407.378 212.681C399.706 181.545 386.096 148.543 370.038 122.138L370.582 121.807C386.672 148.265 400.31 181.331 407.996 212.528C417.223 249.976 417.705 283.218 409.392 308.663Z" fill="#F1F4F9"/>
<path d="M450.362 135.511C446.842 112.666 440.409 90.1095 434.187 68.2956C429.922 53.3408 425.511 37.8768 422.068 22.429L422.69 22.2903C426.129 37.72 430.537 53.1751 434.8 68.1205C441.027 89.9533 447.466 112.53 450.991 135.415L450.362 135.511Z" fill="#F1F4F9"/>
<path d="M440.735 209.781L440.174 209.48C455.446 180.945 488.864 149.657 511.689 142.523L511.878 143.131C489.187 150.224 455.942 181.369 440.735 209.781Z" fill="#F1F4F9"/>
</g>
<path d="M470.494 232.501C459.251 286.965 427.847 275.121 387.092 261.753C393.917 313.097 398.673 363.342 403.323 414.35C430.731 422.892 450.523 428.499 466.043 397.281C483.597 361.973 492.557 341.015 535.117 332.467C577.678 323.919 610.028 292.771 595.966 251.697C581.168 208.472 618.681 152.426 582.651 120.852C519.871 65.8349 482.201 175.788 470.494 232.501Z" fill="#CB9EF5"/>
<mask id="mask1_2013_3987" style="mask-type:luminance" maskUnits="userSpaceOnUse" x="354" y="106" width="246" height="316">
<path d="M383.141 404.529C412.657 419.649 445.922 436.904 466.216 396.801C483.11 363.417 492.756 340.333 535.166 332.356C577.575 324.378 610.032 292.433 595.99 251.708C581.214 208.851 618.55 151.869 582.648 120.882C520.089 66.889 481.846 173.873 470.607 233.332C459.369 292.791 421.83 266.24 383.74 263.982C331.739 260.901 359.294 392.313 383.141 404.529Z" fill="white"/>
</mask>
<g mask="url(#mask1_2013_3987)">
<path d="M407.196 348.868L406.92 348.293C449.073 327.995 483.631 309.911 512.73 277.753C540.547 247.012 554.207 213.829 558.407 166.8C560.597 142.268 564.935 124.954 571.303 101.339L571.917 101.505C565.559 125.088 561.227 142.377 559.041 166.857C554.828 214.036 541.12 247.329 513.203 278.181C484.025 310.425 449.413 328.538 407.196 348.868Z" fill="#F1F4F9"/>
<path d="M460.501 416.738C450.83 404.815 440.404 395.114 428.627 387.082C422.63 382.993 416.463 380.207 409.048 377.283L409.282 376.69C416.736 379.63 422.94 382.433 428.986 386.555C440.814 394.623 451.285 404.364 460.996 416.336L460.501 416.738Z" fill="#F1F4F9"/>
<path d="M494.326 296.749L494.049 296.175C526.073 280.679 565.796 277.029 605.901 285.898L605.763 286.52C565.797 277.683 526.222 281.316 494.326 296.749Z" fill="#F1F4F9"/>
<path d="M549.333 217.178L548.701 217.1C549.196 213.028 543.82 178.44 538.623 147.428C532.771 112.503 527.277 82.6406 526.377 80.8599L526.945 80.5721C527.995 82.6482 534.026 116.142 539.252 147.323C544.455 178.378 549.836 213.038 549.333 217.178Z" fill="#F1F4F9"/>
</g>
<path d="M89.5843 190.05L0.432604 471.19C-1.52206 477.354 3.415 483.526 9.85515 482.969L206.002 466.01L116.175 185.22L89.5843 190.05Z" fill="#354D6C"/>
<path d="M92.8676 190.05L3.71593 471.19C1.76126 477.354 6.69833 483.526 13.1383 482.969L209.285 466.01L119.458 185.22L92.8676 190.05Z" fill="#354D6C"/>
<path d="M541.374 193.175L98.9154 184.307C92.5353 184.179 88.2585 188.61 89.3807 194.205L153.642 514.513C154.764 520.107 160.774 524.317 167.049 523.917L602.157 496.146C607.135 495.828 610.354 491.546 609.358 486.582L552.334 202.347C551.338 197.383 546.437 193.277 541.374 193.175Z" fill="#354D6C"/>
<path d="M544.657 193.175L102.198 184.307C95.8181 184.179 91.5413 188.61 92.6638 194.204L156.925 514.513C158.047 520.107 164.057 524.317 170.332 523.916L605.44 496.145C610.418 495.828 613.637 491.546 612.641 486.582L555.617 202.347C554.621 197.383 549.72 193.277 544.657 193.175Z" fill="#354D6C"/>
<g opacity="0.15">
<path d="M424.247 365.347C337.874 323.308 254.744 356.481 196.796 302.594C161.183 269.476 155.525 222.364 157.4 185.413L102.198 184.307C95.8183 184.179 91.5416 188.61 92.664 194.204L156.925 514.513C158.047 520.107 164.057 524.317 170.332 523.916L547.295 499.856C507.662 419.805 461.793 383.62 424.247 365.347Z" fill="#B9C7E1"/>
</g>
<path d="M590.507 485.367L178.84 510.305C171.936 510.723 165.318 506.062 164.081 499.892L106.903 214.891C105.665 208.721 110.362 203.807 117.371 203.914L535.326 210.317C540.956 210.403 546.403 214.936 547.508 220.442L598.536 474.79C599.64 480.296 596.052 485.031 590.507 485.367Z" fill="#D5DDEE"/>
<path d="M592.375 485.254L181.157 510.164C174.262 510.582 167.651 505.923 166.414 499.758L109.269 214.92C108.032 208.754 112.723 203.843 119.724 203.951L537.222 210.346C542.847 210.432 548.289 214.963 549.393 220.466L600.394 474.682C601.498 480.186 597.914 484.918 592.375 485.254Z" fill="#EFF4F7"/>
<path d="M531.633 243.907L142.44 241.511L138.926 223.996L528.456 228.07L531.633 243.907Z" fill="#CB9EF5"/>
<g opacity="0.3">
<path d="M424.247 365.347C337.874 323.308 254.744 356.482 196.796 302.594C167.132 275.008 158.238 237.628 157.195 204.525L119.247 203.943C112.508 203.84 107.994 208.566 109.185 214.499L166.498 500.178C167.689 506.112 174.05 510.595 180.688 510.193L541.395 488.342C503.179 416.295 459.948 382.722 424.247 365.347Z" fill="#D5DDEE"/>
</g>
<path d="M191.014 485.378C190.188 485.378 189.47 484.795 189.305 483.977L144.348 259.885C144.245 259.371 144.378 258.839 144.71 258.435C145.041 258.031 145.536 257.797 146.058 257.797C146.059 257.797 146.06 257.797 146.061 257.797L223.039 257.929C223.868 257.931 224.582 258.517 224.745 259.33L268.85 479.17C268.949 479.667 268.828 480.182 268.518 480.582C268.208 480.983 267.74 481.228 267.234 481.255L191.109 485.375C191.078 485.377 191.046 485.378 191.014 485.378ZM148.187 261.29L192.428 481.81L265.034 477.881L221.607 261.416L148.187 261.29Z" fill="#D5DDEE"/>
<path d="M276.162 480.77C275.336 480.77 274.617 480.187 274.453 479.369L230.449 260.033C230.346 259.52 230.479 258.988 230.811 258.583C231.142 258.179 231.637 257.945 232.159 257.945C232.16 257.945 232.161 257.945 232.162 257.945L305.937 258.072C306.767 258.074 307.481 258.659 307.644 259.473L350.83 474.734C350.93 475.231 350.809 475.746 350.499 476.146C350.188 476.547 349.72 476.792 349.215 476.82L276.257 480.768C276.225 480.769 276.193 480.77 276.162 480.77ZM234.288 261.438L277.576 477.202L347.014 473.444L304.505 261.558L234.288 261.438Z" fill="#D5DDEE"/>
<path d="M357.771 476.354C356.945 476.354 356.226 475.771 356.062 474.952L312.973 260.175C312.87 259.661 313.003 259.129 313.334 258.725C313.665 258.321 314.16 258.087 314.682 258.087C314.683 258.087 314.684 258.087 314.685 258.087L385.453 258.208C386.283 258.21 386.997 258.796 387.16 259.609L429.465 470.479C429.565 470.976 429.444 471.491 429.134 471.891C428.824 472.291 428.355 472.537 427.85 472.564L357.866 476.351C357.834 476.353 357.802 476.354 357.771 476.354ZM316.812 261.579L359.184 472.786L425.649 469.189L384.021 261.695L316.812 261.579Z" fill="#D5DDEE"/>
<path d="M436.057 472.118C435.231 472.118 434.512 471.535 434.348 470.716L392.136 260.311C392.033 259.797 392.166 259.265 392.498 258.861C392.829 258.457 393.324 258.223 393.846 258.223C393.847 258.223 393.848 258.223 393.849 258.223L461.79 258.339C462.62 258.341 463.334 258.926 463.497 259.74L504.956 466.393C505.056 466.89 504.935 467.405 504.625 467.805C504.314 468.206 503.846 468.451 503.34 468.479L436.152 472.115C436.12 472.116 436.088 472.118 436.057 472.118ZM395.975 261.716L437.471 468.549L501.14 465.104L460.358 261.825L395.975 261.716Z" fill="#D5DDEE"/>
<path d="M511.219 468.05C510.393 468.05 509.674 467.467 509.51 466.649L468.141 260.441C468.038 259.927 468.171 259.396 468.502 258.991C468.833 258.587 469.328 258.353 469.85 258.353C469.851 258.353 469.852 258.353 469.853 258.353L535.134 258.465C535.964 258.467 536.678 259.052 536.841 259.866L577.487 462.468C577.587 462.965 577.466 463.48 577.156 463.88C576.846 464.281 576.377 464.527 575.872 464.554L511.314 468.047C511.283 468.049 511.25 468.05 511.219 468.05ZM471.98 261.846L512.633 464.482L573.671 461.179L533.702 261.952L471.98 261.846Z" fill="#D5DDEE"/>
<path opacity="0.15" d="M222.151 289.531L159.265 289.895L154.623 266.753L217.58 266.75L222.151 289.531Z" fill="#A46DDA"/>
<path opacity="0.15" d="M305.208 289.05L244.939 289.399L240.395 266.748L300.733 266.744L305.208 289.05Z" fill="#A46DDA"/>
<path opacity="0.15" d="M384.871 288.59L327.059 288.924L322.609 266.743L380.488 266.74L384.871 288.59Z" fill="#A46DDA"/>
<path opacity="0.15" d="M461.343 288.148L405.84 288.468L401.48 266.738L457.047 266.735L461.343 288.148Z" fill="#A46DDA"/>
<path d="M468.598 324.311L413.203 325.168L407.681 297.644L463.157 297.188L468.598 324.311Z" fill="#CB9EF5"/>
<path d="M228.691 324.311L167.777 325.168L161.704 297.644L222.708 297.188L228.691 324.311Z" fill="#DFA660"/>
<path d="M312.939 324.311L252.024 325.168L245.952 297.644L306.955 297.188L312.939 324.311Z" fill="#CB9EF5"/>
<path d="M391.854 324.311L334.864 325.168L329.182 297.644L386.256 297.188L391.854 324.311Z" fill="#DFA660"/>
<path d="M236.618 361.234L175.703 362.092L169.631 334.567L230.634 334.112L236.618 361.234Z" fill="#CB9EF5"/>
<path d="M245.04 401.971L184.125 402.829L178.053 375.304L239.056 374.849L245.04 401.971Z" fill="#DFA660"/>
<path d="M542.884 323.129L487.488 323.965L481.966 297.144L537.443 296.701L542.884 323.129Z" fill="#DFA660"/>
<path d="M549.448 356.286L494.053 357.122L488.531 330.301L544.007 329.858L549.448 356.286Z" fill="#CB9EF5"/>
<path opacity="0.15" d="M534.812 287.723L481.483 288.031L477.21 266.734L530.601 266.731L534.812 287.723Z" fill="#A46DDA"/>
<path d="M179.775 89.4669C184.863 87.9805 191.662 97.3258 197.315 105.095C205.771 116.718 215.651 130.297 212.99 146.603C210.371 162.646 196.623 175.14 192.705 173.353C189.353 171.825 195.797 161.035 190.861 146.603C186.878 134.958 180.279 134.954 175.853 123.537C170.36 109.369 173.517 91.2959 179.775 89.4669Z" fill="#DFA660"/>
<path d="M182.293 163.362C208.496 169.726 225.755 179.942 235.835 187.168C241.298 191.084 243.822 193.527 245.184 197.087C252.946 217.376 213.067 248.054 208.817 251.266C206.961 246.936 205.105 242.606 203.249 238.276C207.369 215.649 214.23 208.551 219.971 206.44C221.577 205.849 224.273 205.216 224.22 204.456C224.096 202.658 208.949 205.22 194.474 199.921C180.04 194.638 165.539 181.269 168.128 172.431C168.601 170.817 170.581 166.154 182.293 163.362Z" fill="#49296C"/>
<path d="M207.701 311.662C207.701 311.662 205.262 312.531 205.253 314.461C205.244 316.39 207.724 324.891 210.418 327.912C213.111 330.932 213.352 326.426 213.185 323.523C213.019 320.62 212.313 314.123 211.647 312.866C210.981 311.61 207.701 311.662 207.701 311.662Z" fill="#354D6C"/>
<path d="M215.533 193.025C220.294 192.931 231.449 192.043 234.419 197.559C236.897 202.162 232.556 209.139 229.886 213.43C222.629 225.096 215.584 226.29 210.622 233.458C208.702 236.232 206.962 240.107 206.408 245.644C205.355 243.188 204.302 240.732 203.249 238.276C207.37 215.649 214.23 208.55 219.971 206.44C221.577 205.849 224.273 205.216 224.22 204.456C224.097 202.658 208.95 205.22 194.475 199.921C181.317 195.105 168.147 183.58 167.875 174.883C188.71 189.832 204.391 193.243 215.533 193.025Z" fill="#49296C"/>
<path d="M206.292 303.462C206.435 306.436 206.688 308.922 206.915 310.769C207.419 314.853 207.881 316.47 208.515 317.942C209.068 319.225 210.45 322.023 211.11 321.829C211.78 321.632 211.09 318.532 210.568 309.91C210.492 308.658 210.262 304.674 210.262 304.674L206.292 303.462Z" fill="white"/>
<path d="M167.184 165.062C182.281 174.168 192.082 184.522 197.78 191.514C204.506 199.767 214.738 212.322 218.442 231.043C220.417 241.021 219.445 249.972 217.421 267.467C215.411 284.842 212.53 298.988 210.275 308.649C209.115 309.116 207.954 309.582 206.793 310.048C203.683 304.332 199.616 295.285 198.157 283.715C195.772 264.786 202.85 258.771 199.452 245.347C196.509 233.718 187.981 226.588 170.926 212.327C156.913 200.61 143.992 193.659 139.196 179.044C138.381 176.562 137.689 173.518 139.017 170.73C141.878 164.723 152.826 162.627 167.184 165.062Z" fill="#49296C"/>
<path d="M155.132 90.5498C159.051 89.7065 165.496 89.874 171.639 85.0342C173.489 83.5772 180.041 78.4152 179.246 71.0296C178.545 64.5276 172.385 61.0333 171.63 60.6171C167.269 58.216 162.921 58.7496 158.1 59.4091C151.847 60.2645 149.771 61.973 145.426 63.1449C134.678 66.043 131.043 59.9935 120.222 60.5042C106.391 61.1564 105.195 71.3753 93.558 71.6302C80.4944 71.9163 77.9907 59.126 65.0927 56.959C47.1899 53.951 20.1026 73.2314 20.648 95.4577C20.963 108.295 30.5181 123.007 42.7225 127.424C49.8363 129.998 57.5127 129.18 59.7037 133.808C61.2631 137.102 57.7574 139.639 58.0889 145.377C58.515 152.775 64.8819 157.967 65.91 158.805C75.454 166.588 96.8518 162.657 111.464 151.644C137.814 131.786 133.826 95.136 155.132 90.5498Z" fill="#354D6C"/>
<path d="M124.866 87.9111C133.741 86.8173 143.977 85.9845 155.352 85.83C179.388 85.5035 182.829 88.5523 183.709 90.8094C185.351 95.0169 182.539 97.1256 184.136 104.462C185.09 108.849 184.188 110.848 186.033 115.561C187.832 120.154 186.421 122.624 184.831 133.394C182.797 147.167 181.859 154.167 185.711 159.719C188.388 163.576 191.383 163.903 191.098 165.736C190.489 169.64 176.996 167.487 159.912 174.981C154.967 177.151 150.415 179.825 146.597 182.067C137.659 187.316 136.005 189.324 131.866 191.702C118.776 199.225 99.1119 199.949 88.8055 190.852C84.9633 187.46 82.1629 182.474 83.423 180.649C85.1388 178.165 92.8125 183.809 99.854 180.366C104.519 178.085 103.632 174.395 109.026 170.048C115.516 164.815 120.029 167.557 124.446 164.152C131.338 158.842 128.203 146.126 126.268 124.807C125.468 115.982 124.665 103.379 124.866 87.9111Z" fill="#DFA660"/>
<path d="M150.878 82.9581C147.599 84.9924 142.3 87.6516 141.717 88.3735C141.133 89.0943 157.77 91.9444 168.123 86.7182C168.123 86.7182 169.728 85.8263 163.487 84.5777C162.157 84.3117 162.417 81.7236 162.595 79.048L161.347 76.729C161.347 76.729 154.155 80.9224 150.878 82.9581Z" fill="#F1F4F9"/>
<path d="M159.148 75.1536C159.148 75.1536 157.862 80.6111 162.666 83.3082C166.968 85.7239 174.246 75.8224 172.886 72.1429C172.433 70.9154 170.813 69.3378 169.12 68.8077C167.929 68.4347 163.424 68.5785 161.494 72.3734C160.989 71.2638 160.084 70.6821 159.476 70.8646C158.704 71.0952 158.591 72.5005 158.565 72.8186C158.475 73.9221 158.92 74.7781 159.148 75.1536Z" fill="#F1F4F9"/>
<path opacity="0.3" d="M166.597 162.64C161.647 164.692 160.979 169.127 154.136 171.643C147.607 174.043 145.416 171.036 138.905 173.028C129.124 176.021 125.385 185.462 123.905 184.571C122.548 183.755 123.849 174.724 130.135 168.873C137.355 162.153 145.131 165.23 149.751 158.253C151.548 155.539 152.934 151.202 151.366 147.864C149.241 143.341 143.692 144.91 140.751 141.169C135.467 134.449 147.832 122.327 144.443 112.08C143.091 107.991 138.785 102.866 124.897 99.4352C125.086 109.706 125.677 118.289 126.269 124.807C128.203 146.126 131.338 158.842 124.447 164.152C120.029 167.557 115.517 164.815 109.026 170.048C103.633 174.395 104.519 178.085 99.8545 180.366C92.813 183.809 85.1395 178.165 83.4234 180.649C82.1634 182.474 84.9638 187.46 88.806 190.852C99.1123 199.949 118.776 199.224 131.867 191.702C136.006 189.324 137.659 187.316 146.598 182.067C150.415 179.825 154.967 177.151 159.913 174.981C171.902 169.721 182.115 169.212 187.355 168.028C176.952 161.088 170.615 160.974 166.597 162.64Z" fill="#DFA660"/>
<path d="M209.503 171.455L155.138 174.102C154.39 174.139 153.707 174.539 153.312 175.175L151.807 177.591C151.059 178.793 151.958 180.344 153.373 180.29L210.958 178.095L209.503 171.455Z" fill="#CB9EF5"/>
<path d="M266.046 141.169L209.882 142.258C208.22 142.29 206.698 143.196 205.877 144.642L186.428 178.874L245.744 176.51C247.372 176.445 248.858 175.563 249.695 174.164L267.714 144.048C268.482 142.766 267.54 141.141 266.046 141.169Z" fill="#CB9EF5"/>
<path opacity="0.3" d="M205.877 144.642C206.698 143.196 208.22 142.29 209.882 142.258L211.113 142.234C211.296 144.048 211.852 145.707 212.962 147.047C216.425 151.229 222.179 148.649 226.468 153.075C231.178 157.936 226.827 163.724 231.038 168.248C235.472 173.011 242.641 169.133 250.882 172.181L249.695 174.164C248.858 175.563 247.372 176.445 245.744 176.51L186.428 178.874L205.877 144.642Z" fill="#CB9EF5"/>
<path d="M161.862 169.638C162.57 167.769 163.277 165.9 163.985 164.03C156.165 161.885 145.349 158.716 134.255 154.75C131.513 153.77 130.51 152.504 129.777 151.531C124.089 143.984 138.564 130.671 138.304 113.397C138.125 101.422 130.868 87.7243 124.474 87.569C111.476 87.253 82.8183 142.426 106.955 165.974C118.935 177.662 141.317 179.018 161.862 169.638Z" fill="#DFA660"/>
<path d="M163.985 164.03C168.894 161.421 174.771 164.095 175.15 164.274C176.229 164.784 177.799 165.691 179.385 167.312C179.564 167.557 181.694 170.509 180.918 171.455C180.296 172.213 177.888 171.585 174.993 169.784C173.78 169.614 171.974 169.457 169.81 169.657C165.836 170.024 164.016 171.279 162.574 170.195C161.517 169.402 161.157 167.724 161.537 166.476C161.946 165.136 163.154 164.472 163.985 164.03Z" fill="#F1F4F9"/>
<path d="M483.453 581.248C483.709 579.837 488.263 578.56 490.517 580.45C491.637 581.388 492.408 583.29 491.76 584.149C491.525 584.461 492.49 585.011 491.565 585.021C488.498 585.057 483.198 582.65 483.453 581.248Z" fill="#354D6C"/>
<path d="M488.433 581.255L493.157 581.491C491.52 578.514 493.488 570.418 493.488 570.418L488.387 570.568C488.387 570.568 488.512 572.918 488.823 576.41C488.93 577.605 488.734 579.405 488.433 581.255Z" fill="#DFA660"/>
<path d="M487.811 581.184C487.811 581.184 493.449 579.884 494.059 581.003C494.669 582.122 495.142 585.118 491.565 585.021C487.988 584.925 487.493 582.133 487.811 581.184Z" fill="#354D6C"/>
<path d="M423.654 591.48C424.105 590.119 428.793 589.492 430.761 591.679C431.738 592.764 432.236 594.755 431.474 595.515C431.197 595.791 432.076 596.471 431.158 596.352C428.116 595.958 423.206 592.832 423.654 591.48Z" fill="#354D6C"/>
<path d="M429.194 592.791L433.835 593.702C432.642 590.521 435.751 582.791 435.751 582.791L430.681 582.207C430.681 582.207 430.468 584.551 430.275 588.051C430.209 589.249 429.756 591.003 429.194 592.791Z" fill="#DFA660"/>
<path d="M427.978 592.027C427.978 592.027 433.743 591.53 434.19 592.723C434.638 593.916 434.687 596.949 431.159 596.352C427.63 595.756 427.531 592.922 427.978 592.027Z" fill="#354D6C"/>
<path d="M470.619 429.358C471.883 450.981 473.653 473.466 476.038 496.735C478.8 523.693 482.155 549.451 485.918 573.931C490.556 575.522 494.843 573.931 494.843 573.931C494.843 573.931 500.266 565.045 504.405 541.427C507.06 526.274 507.243 526.465 507.273 523.822C507.423 510.485 502.746 506.624 501.855 494.704C501.03 483.675 504.539 480.372 506.636 467.956C508.248 458.409 508.852 444.495 503.767 426.311C492.718 427.327 481.669 428.342 470.619 429.358Z" fill="#49296C"/>
<path opacity="0.3" d="M470.619 429.358C471.883 450.981 473.653 473.466 476.038 496.735C478.8 523.693 482.155 549.451 485.918 573.931C490.557 575.522 494.843 573.931 494.843 573.931C494.784 571.665 494.626 568.251 494.153 564.126C492.898 553.186 490.899 550.073 490.693 543.36C490.431 534.774 493.538 534.51 494.153 526.055C495.106 512.95 487.913 509.842 487.234 498.367C486.516 486.242 494.105 482.252 499.919 467.217C503.351 458.342 506.397 445.017 503.767 426.311C492.718 427.327 481.669 428.342 470.619 429.358Z" fill="#49296C"/>
<path d="M447.352 428.681C441.001 450.083 434.846 476.666 431.415 507.57C428.085 537.562 428.146 564.197 429.503 586.12C431.522 586.684 433.54 587.248 435.559 587.813C447.296 575.527 451.488 564.234 453.089 555.986C455.458 543.786 451.888 539.649 455.001 525.853C455.717 522.679 456.725 519.27 468.388 496.397C479.519 474.565 481.802 471.395 483.687 463.555C486.378 452.364 485.668 442.439 484.643 435.791C472.213 433.421 459.782 431.051 447.352 428.681Z" fill="#49296C"/>
<path d="M397.298 382.424L377.379 335.746C376.384 333.414 377.72 330.747 380.183 330.148L416.67 321.283C418.642 320.804 420.668 321.84 421.435 323.719L439.756 368.582C440.668 370.816 439.466 373.352 437.159 374.058L402.27 384.737C400.266 385.35 398.121 384.353 397.298 382.424Z" fill="#283A52"/>
<path d="M398.199 380.179L379.594 336.578C378.664 334.4 379.912 331.908 382.213 331.349L416.294 323.069C418.136 322.621 420.028 323.589 420.745 325.344L437.858 367.249C438.71 369.336 437.587 371.704 435.432 372.364L402.844 382.339C400.971 382.913 398.968 381.981 398.199 380.179Z" fill="#A46DDA"/>
<path d="M386.713 367.362L386.116 361.862L382.948 355.82C382.516 354.997 382.291 354.082 382.291 353.153V347.154L386.116 356.003C386.116 356.003 388.626 353.73 389.582 353.252C390.538 352.774 390.419 354.687 389.702 355.405C388.985 356.122 390.06 361.981 389.343 362.579L389.582 366.166L386.713 367.362Z" fill="#DFA660"/>
<path d="M417.072 332.327C420.047 325.051 426.431 320.866 429.742 318.696C437.575 313.562 442.59 314.499 460.579 311.761C484.553 308.112 487.422 304.654 495.48 307.456C506.064 311.137 511.592 320.749 514.126 325.153C526.898 347.358 511.965 358.644 515.799 402.875C517.365 420.939 521.379 436.637 511.735 445.921C509.704 447.875 507.433 448.898 502.89 450.943C484.874 459.052 468.721 457.654 458.905 456.682C448.104 455.612 442.645 454.999 439.781 451.182C435.207 445.084 439.916 437.333 440.738 423.919C441.327 414.289 439.139 406.658 434.761 391.396C424.585 355.915 411.373 346.268 417.072 332.327Z" fill="#F7716D"/>
<path d="M457.201 298.672C456.109 294.782 458.017 291.18 458.438 290.404C460.199 287.154 460.65 286.71 461.49 286.147L462.658 285.426C462.658 285.426 462.726 285.399 462.797 285.374C463.546 285.107 466.101 285.029 466.618 285.14C468.271 285.493 470.031 292.23 469.529 301.755C469.597 302.118 469.664 302.484 469.728 302.853C469.988 304.358 470.195 305.832 470.355 307.274C470.508 308.652 472.462 308.621 473.846 308.532C479.464 308.174 482.213 308.652 482.452 309.489C482.899 311.058 476.236 316.185 468.009 317.339C456.967 317.421 447.984 316.245 448.95 314.505C449.378 313.733 457.934 311.496 460.34 309.28C462.543 307.25 462.364 305.155 462.545 303.654C461.877 303.308 458.004 301.538 457.201 298.672Z" fill="#DFA660"/>
<path d="M459.232 282.721C459.242 285.671 460.632 288.823 461.34 289.329C461.431 289.395 461.946 289.802 462.408 290.497C462.471 290.591 462.526 290.702 462.576 290.846C463.222 292.705 460.267 294.893 460.837 295.726C461.251 296.33 463.26 295.522 463.499 296.044C463.724 296.535 462.054 297.551 462.31 298.139C462.503 298.583 463.53 298.177 464.178 298.857C464.501 299.196 464.406 299.464 464.748 300.499C464.942 301.085 465.212 301.725 465.422 302.082C466.442 303.815 469.329 304.447 469.884 303.754C470.039 303.561 469.906 303.398 470.064 302.75C470.064 302.75 470.211 302.149 470.629 301.454C471.226 300.462 472.667 299.751 474.122 298.704C476.816 296.763 477.548 295.108 477.768 294.549C477.846 294.35 477.895 294.2 477.93 294.092C478.631 291.917 478.634 288.722 477.656 286.757C476.019 283.466 472.325 285.029 469.302 281.767C465.813 278.005 467.891 272.862 465.998 272.294C463.911 271.668 459.214 277.264 459.232 282.721Z" fill="#283A52"/>
<path d="M461.897 295.033C462.62 294.039 463.891 294.973 463.898 296.259C463.906 297.544 462.66 298.881 461.452 298.627C460.244 298.373 460.924 296.37 461.897 295.033Z" fill="#DFA660"/>
<path d="M462.484 292.882L460.807 295.064C460.807 295.064 458.998 297.739 457.943 296.274C457.08 295.076 456.857 295.103 456.804 295.153C456.794 295.163 456.792 295.177 456.789 295.177C456.774 295.173 456.916 294.581 457.043 294.061C456.596 294.702 455.981 295.742 455.608 297.142C455.246 298.501 454.858 299.956 455.625 301.354C455.669 301.435 456.514 302.923 458.091 303.283C458.091 303.283 458.711 303.424 461.331 302.964C461.331 302.964 458.467 300.885 458.423 300.391C458.305 299.048 460.167 298.322 461.549 295.569C462.082 294.507 462.344 293.544 462.484 292.882Z" fill="#283A52"/>
<path opacity="0.3" d="M468.229 444.007C465.051 437.678 472.838 429.264 467.75 419.615C463.43 411.42 455.582 413.256 451.973 405.745C447.615 396.673 457.094 389.892 456.754 376.091C456.349 359.591 442.157 343.075 433.806 344.524C428.402 345.461 427.708 353.526 423.906 362.354C427.27 369.734 431.201 378.98 434.762 391.396C439.14 406.658 441.328 414.289 440.738 423.92C439.916 437.333 435.207 445.084 439.782 451.182C442.646 455 448.105 455.612 458.906 456.682C468.722 457.654 484.875 459.052 502.891 450.943C505.171 449.916 506.879 449.147 508.271 448.389C480.124 452.617 470.749 449.028 468.229 444.007Z" fill="#F7716D"/>
<path d="M385.637 366.286C387.39 365.528 389.143 364.771 390.897 364.014C393.859 367.045 397.638 369.993 400.817 369.036C405.555 367.609 404.37 358.889 410.14 343.567C416.677 326.207 424.093 321.744 427.829 320.131C429.916 319.23 431.357 318.631 433.088 319.055C441.056 321.003 443.691 341.775 441.455 357.318C440.195 366.075 437.725 383.246 423.646 391.396C421.646 392.554 410.637 398.927 399.741 393.907C390.433 389.618 384.682 378.616 385.637 366.286Z" fill="#F7716D"/>
</svg>
