<svg width="100" height="100" viewBox="0 0 100 100" fill="none" xmlns="http://www.w3.org/2000/svg">
<path d="M0 2.01088C0 0.900303 0.900232 0 2.01072 0H35.7281C36.2576 0 36.7658 0.208871 37.1422 0.581268L61.0261 24.2088C61.8192 24.9935 61.822 26.2739 61.0322 27.062L1.82982 86.1364C1.15391 86.8108 0 86.3321 0 85.3772V2.01088Z" fill="#8E59C4"/>
<path d="M72.1483 37.5944C72.9312 36.7927 74.2182 36.7856 75.0098 37.5786L99.4122 62.0213C99.7886 62.3984 100 62.9094 100 63.4421V97.7234C100 98.8315 99.1036 99.7308 97.9956 99.7343L13.7618 100C12.8109 100.003 12.3269 98.8586 12.9912 98.1782L72.1483 37.5944Z" fill="#F7716D"/>
<path d="M97.9893 0C99.0998 0 100 0.900304 100 2.01089V36.4715C100 37.4091 98.8817 37.8953 98.1961 37.2557L60.2534 1.85669C59.5416 1.1926 60.0115 0 60.9849 0H97.9893Z" fill="#DFA660"/>
</svg>
